<svg width="24" height="24" viewBox="0 0 24 24" fill="none" xmlns="http://www.w3.org/2000/svg">
<path d="M15.7504 18H19.5005V16.4999C19.5005 16.0323 19.3547 15.5763 19.0836 15.1954C18.8124 14.8144 18.4293 14.5274 17.9875 14.3742C17.5457 14.221 17.0671 14.2093 16.6183 14.3406C16.1696 14.472 15.7728 14.7399 15.4834 15.1071M15.7504 18H8.25012M15.7504 18V16.4999C15.7504 16.0079 15.6559 15.5377 15.4834 15.1071M15.4834 15.1071C15.2048 14.4111 14.7241 13.8145 14.1033 13.3942C13.4825 12.9739 12.75 12.7493 12.0002 12.7493C11.2505 12.7493 10.518 12.9739 9.89718 13.3942C9.27634 13.8145 8.79566 14.4111 8.51713 15.1071M8.25012 18H4.5V16.4999C4.50003 16.0323 4.64576 15.5763 4.91691 15.1954C5.18806 14.8144 5.57117 14.5274 6.01299 14.3742C6.4548 14.221 6.93336 14.2093 7.38215 14.3406C7.83093 14.472 8.22764 14.7399 8.51713 15.1071M8.25012 18V16.4999C8.25012 16.0079 8.34463 15.5377 8.51713 15.1071M14.2503 8.24968C14.2503 8.84643 14.0133 9.41875 13.5913 9.84072C13.1693 10.2627 12.597 10.4997 12.0002 10.4997C11.4035 10.4997 10.8312 10.2627 10.4092 9.84072C9.98723 9.41875 9.75017 8.84643 9.75017 8.24968C9.75017 7.65292 9.98723 7.08061 10.4092 6.65863C10.8312 6.23666 11.4035 5.9996 12.0002 5.9996C12.597 5.9996 13.1693 6.23666 13.5913 6.65863C14.0133 7.08061 14.2503 7.65292 14.2503 8.24968ZM18.7505 10.4997C18.7505 10.8976 18.5924 11.2791 18.3111 11.5604C18.0298 11.8418 17.6483 11.9998 17.2504 11.9998C16.8526 11.9998 16.471 11.8418 16.1897 11.5604C15.9084 11.2791 15.7504 10.8976 15.7504 10.4997C15.7504 10.1019 15.9084 9.72037 16.1897 9.43906C16.471 9.15774 16.8526 8.9997 17.2504 8.9997C17.6483 8.9997 18.0298 9.15774 18.3111 9.43906C18.5924 9.72037 18.7505 10.1019 18.7505 10.4997ZM8.25012 10.4997C8.25012 10.8976 8.09208 11.2791 7.81077 11.5604C7.52945 11.8418 7.14791 11.9998 6.75007 11.9998C6.35224 11.9998 5.97069 11.8418 5.68938 11.5604C5.40806 11.2791 5.25002 10.8976 5.25002 10.4997C5.25002 10.1019 5.40806 9.72037 5.68938 9.43906C5.97069 9.15774 6.35224 8.9997 6.75007 8.9997C7.14791 8.9997 7.52945 9.15774 7.81077 9.43906C8.09208 9.72037 8.25012 10.1019 8.25012 10.4997Z" stroke="black" stroke-width="1.21875" stroke-linecap="round" stroke-linejoin="round"/>
</svg>
