<svg width="24" height="24" viewBox="0 0 24 24" fill="none" xmlns="http://www.w3.org/2000/svg">
<path d="M14.3333 6.00043L9.66667 8.33377M9.66667 18.4449L5.43011 16.3262C5.30094 16.2617 5.19228 16.1624 5.11632 16.0396C5.04035 15.9168 5.00008 15.7753 5 15.6309V7.25888C5.00007 7.12635 5.034 6.99604 5.09858 6.88031C5.16315 6.76458 5.25623 6.66727 5.36897 6.59762C5.48172 6.52796 5.61039 6.48827 5.74278 6.4823C5.87517 6.47634 6.0069 6.50431 6.12544 6.56355L9.66667 8.33377V18.4449ZM9.66667 18.4449L14.3333 16.1115L9.66667 18.4449ZM9.66667 18.4449V8.33377V18.4449ZM14.3333 16.1115L17.8746 17.8818C17.9931 17.941 18.1248 17.969 18.2572 17.963C18.3896 17.957 18.5183 17.9174 18.631 17.8477C18.7438 17.778 18.8368 17.6807 18.9014 17.565C18.966 17.4493 18.9999 17.319 19 17.1864V8.81443C18.9999 8.67003 18.9596 8.5285 18.8837 8.40569C18.8077 8.28288 18.6991 8.18365 18.5699 8.1191L14.3333 6.00043V16.1115ZM14.3333 16.1115V6.00043V16.1115Z" stroke="black" stroke-width="1.3" stroke-linecap="round" stroke-linejoin="round"/>
</svg>
