<svg width="24" height="24" viewBox="0 0 24 24" fill="none" xmlns="http://www.w3.org/2000/svg">
<path d="M16.1354 15.4697L13.0334 18.5717C12.8978 18.7075 12.7367 18.8152 12.5594 18.8887C12.382 18.9622 12.192 19 12 19C11.8081 19 11.618 18.9622 11.4407 18.8887C11.2634 18.8152 11.1023 18.7075 10.9667 18.5717L7.86398 15.4697C7.04606 14.6518 6.48907 13.6096 6.26342 12.4751C6.03778 11.3406 6.15362 10.1647 6.59629 9.09599C7.03897 8.02731 7.7886 7.1139 8.75039 6.47126C9.71219 5.82862 10.8429 5.48561 11.9997 5.48561C13.1564 5.48561 14.2872 5.82862 15.249 6.47126C16.2108 7.1139 16.9604 8.02731 17.4031 9.09599C17.8457 10.1647 17.9616 11.3406 17.7359 12.4751C17.5103 13.6096 16.9533 14.6518 16.1354 15.4697V15.4697Z" stroke="black" stroke-width="1.3" stroke-linecap="round" stroke-linejoin="round"/>
<path d="M14.1929 11.3342C14.1929 11.9159 13.9618 12.4737 13.5505 12.885C13.1392 13.2963 12.5813 13.5274 11.9996 13.5274C11.4179 13.5274 10.8601 13.2963 10.4488 12.885C10.0375 12.4737 9.8064 11.9159 9.8064 11.3342C9.8064 10.7525 10.0375 10.1946 10.4488 9.78333C10.8601 9.37202 11.4179 9.14095 11.9996 9.14095C12.5813 9.14095 13.1392 9.37202 13.5505 9.78333C13.9618 10.1946 14.1929 10.7525 14.1929 11.3342Z" stroke="black" stroke-width="1.3" stroke-linecap="round" stroke-linejoin="round"/>
</svg>
