<svg width="24" height="24" viewBox="0 0 24 24" fill="none" xmlns="http://www.w3.org/2000/svg">
<path d="M11.5 6.44444C11.5 6.06135 11.6522 5.69395 11.9231 5.42307C12.194 5.15218 12.5614 5 12.9444 5C13.3275 5 13.6949 5.15218 13.9658 5.42307C14.2367 5.69395 14.3889 6.06135 14.3889 6.44444V7.16667C14.3889 7.35821 14.465 7.54191 14.6004 7.67735C14.7359 7.8128 14.9196 7.88889 15.1111 7.88889H17.2778C17.4693 7.88889 17.653 7.96498 17.7885 8.10042C17.9239 8.23587 18 8.41957 18 8.61111V10.7778C18 10.9693 17.9239 11.153 17.7885 11.2885C17.653 11.4239 17.4693 11.5 17.2778 11.5H16.5556C16.1725 11.5 15.8051 11.6522 15.5342 11.9231C15.2633 12.194 15.1111 12.5614 15.1111 12.9444C15.1111 13.3275 15.2633 13.6949 15.5342 13.9658C15.8051 14.2367 16.1725 14.3889 16.5556 14.3889H17.2778C17.4693 14.3889 17.653 14.465 17.7885 14.6004C17.9239 14.7359 18 14.9196 18 15.1111V17.2778C18 17.4693 17.9239 17.653 17.7885 17.7885C17.653 17.9239 17.4693 18 17.2778 18H15.1111C14.9196 18 14.7359 17.9239 14.6004 17.7885C14.465 17.653 14.3889 17.4693 14.3889 17.2778V16.5556C14.3889 16.1725 14.2367 15.8051 13.9658 15.5342C13.6949 15.2633 13.3275 15.1111 12.9444 15.1111C12.5614 15.1111 12.194 15.2633 11.9231 15.5342C11.6522 15.8051 11.5 16.1725 11.5 16.5556V17.2778C11.5 17.4693 11.4239 17.653 11.2885 17.7885C11.153 17.9239 10.9693 18 10.7778 18H8.61111C8.41957 18 8.23587 17.9239 8.10042 17.7885C7.96498 17.653 7.88889 17.4693 7.88889 17.2778V15.1111C7.88889 14.9196 7.8128 14.7359 7.67735 14.6004C7.54191 14.465 7.35821 14.3889 7.16667 14.3889H6.44444C6.06135 14.3889 5.69395 14.2367 5.42307 13.9658C5.15218 13.6949 5 13.3275 5 12.9444C5 12.5614 5.15218 12.194 5.42307 11.9231C5.69395 11.6522 6.06135 11.5 6.44444 11.5H7.16667C7.35821 11.5 7.54191 11.4239 7.67735 11.2885C7.8128 11.153 7.88889 10.9693 7.88889 10.7778V8.61111C7.88889 8.41957 7.96498 8.23587 8.10042 8.10042C8.23587 7.96498 8.41957 7.88889 8.61111 7.88889H10.7778C10.9693 7.88889 11.153 7.8128 11.2885 7.67735C11.4239 7.54191 11.5 7.35821 11.5 7.16667V6.44444Z" stroke="black" stroke-width="1.44444" stroke-linecap="round" stroke-linejoin="round"/>
</svg>
