<svg width="24" height="24" viewBox="0 0 24 24" fill="none" xmlns="http://www.w3.org/2000/svg">
<path d="M10.4444 19H13.5556M17.4444 19V6.55556C17.4444 6.143 17.2806 5.74733 16.9888 5.45561C16.6971 5.16389 16.3014 5 15.8889 5H8.11111C7.69855 5 7.30289 5.16389 7.01117 5.45561C6.71944 5.74733 6.55556 6.143 6.55556 6.55556V19H17.4444ZM17.4444 19H19H17.4444ZM17.4444 19H13.5556H17.4444ZM6.55556 19H5H6.55556ZM6.55556 19H10.4444H6.55556ZM9.66667 8.11111H10.4444H9.66667ZM9.66667 11.2222H10.4444H9.66667ZM13.5556 8.11111H14.3333H13.5556ZM13.5556 11.2222H14.3333H13.5556ZM10.4444 19V15.1111C10.4444 14.9048 10.5264 14.707 10.6723 14.5611C10.8181 14.4153 11.0159 14.3333 11.2222 14.3333H12.7778C12.9841 14.3333 13.1819 14.4153 13.3277 14.5611C13.4736 14.707 13.5556 14.9048 13.5556 15.1111V19H10.4444Z" stroke="black" stroke-width="1.3" stroke-linecap="round" stroke-linejoin="round"/>
</svg>
