<svg width="24" height="24" viewBox="0 0 24 24" fill="none" xmlns="http://www.w3.org/2000/svg">
<path d="M8.94115 5.76471H7.41174C7.00611 5.76471 6.6171 5.92584 6.33028 6.21266C6.04346 6.49948 5.88232 6.88849 5.88232 7.29412V16.4706C5.88232 16.8762 6.04346 17.2652 6.33028 17.552C6.6171 17.8389 7.00611 18 7.41174 18H16.5882C16.9938 18 17.3828 17.8389 17.6697 17.552C17.9565 17.2652 18.1176 16.8762 18.1176 16.4706V7.29412C18.1176 6.88849 17.9565 6.49948 17.6697 6.21266C17.3828 5.92584 16.9938 5.76471 16.5882 5.76471H15.0588M12 5V11.1176M12 11.1176L14.2941 8.82353M12 11.1176L9.70585 8.82353M5.88232 12.6471H7.85985C8.06265 12.6471 8.25712 12.7277 8.4005 12.8711L10.2465 14.7171C10.3899 14.8605 10.5844 14.9411 10.7871 14.9412H13.2128C13.4156 14.9411 13.6101 14.8605 13.7534 14.7171L15.5994 12.8711C15.7428 12.7277 15.9373 12.6471 16.1401 12.6471H18.1176" stroke="black" stroke-width="1.3" stroke-linecap="round" stroke-linejoin="round"/>
</svg>
