<svg width="24" height="24" viewBox="0 0 24 24" fill="none" xmlns="http://www.w3.org/2000/svg">
<path d="M9.66667 5V6.55556V5ZM14.3333 5V6.55556V5ZM9.66667 17.4444V19V17.4444ZM14.3333 17.4444V19V17.4444ZM6.55556 9.66667H5H6.55556ZM6.55556 14.3333H5H6.55556ZM19 9.66667H17.4444H19ZM19 14.3333H17.4444H19ZM8.11111 17.4444H15.8889C16.3014 17.4444 16.6971 17.2806 16.9888 16.9888C17.2806 16.6971 17.4444 16.3014 17.4444 15.8889V8.11111C17.4444 7.69855 17.2806 7.30289 16.9888 7.01117C16.6971 6.71944 16.3014 6.55556 15.8889 6.55556H8.11111C7.69855 6.55556 7.30289 6.71944 7.01117 7.01117C6.71944 7.30289 6.55556 7.69855 6.55556 8.11111V15.8889C6.55556 16.3014 6.71944 16.6971 7.01117 16.9888C7.30289 17.2806 7.69855 17.4444 8.11111 17.4444ZM9.66667 9.66667H14.3333V14.3333H9.66667V9.66667Z" stroke="black" stroke-width="1.3" stroke-linecap="round" stroke-linejoin="round"/>
</svg>
