<svg width="24" height="24" viewBox="0 0 24 24" fill="none" xmlns="http://www.w3.org/2000/svg">
<path d="M9.66667 12.2222H14.3333H9.66667ZM12 9.88889V14.5556V9.88889ZM5 15.3333V7.55556C5 7.143 5.16389 6.74733 5.45561 6.45561C5.74733 6.16389 6.143 6 6.55556 6H11.2222L12.7778 7.55556H17.4444C17.857 7.55556 18.2527 7.71944 18.5444 8.01117C18.8361 8.30289 19 8.69855 19 9.11111V15.3333C19 15.7459 18.8361 16.1416 18.5444 16.4333C18.2527 16.725 17.857 16.8889 17.4444 16.8889H6.55556C6.143 16.8889 5.74733 16.725 5.45561 16.4333C5.16389 16.1416 5 15.7459 5 15.3333Z" stroke="black" stroke-width="1.16667" stroke-linecap="round" stroke-linejoin="round"/>
</svg>
