<svg width="24" height="24" viewBox="0 0 24 24" fill="none" xmlns="http://www.w3.org/2000/svg">
<path d="M5 9.33322L11.1367 13.4243C11.3923 13.5949 11.6927 13.6859 12 13.6859C12.3073 13.6859 12.6077 13.5949 12.8633 13.4243L19 9.33322M6.55556 17.8888H17.4444C17.857 17.8888 18.2527 17.7249 18.5444 17.4332C18.8361 17.1414 19 16.7458 19 16.3332V8.55545C19 8.14289 18.8361 7.74723 18.5444 7.4555C18.2527 7.16378 17.857 6.99989 17.4444 6.99989H6.55556C6.143 6.99989 5.74733 7.16378 5.45561 7.4555C5.16389 7.74723 5 8.14289 5 8.55545V16.3332C5 16.7458 5.16389 17.1414 5.45561 17.4332C5.74733 17.7249 6.143 17.8888 6.55556 17.8888Z" stroke="#1890FF" stroke-width="1.3" stroke-linecap="round" stroke-linejoin="round"/>
</svg>
