<svg width="40" height="40" viewBox="0 0 40 40" fill="none" xmlns="http://www.w3.org/2000/svg">
<path d="M0 4C0 1.79086 1.79086 0 4 0H36C38.2091 0 40 1.79086 40 4V36C40 38.2091 38.2091 40 36 40H4C1.79086 40 0 38.2091 0 36V4Z" fill="#F5F5F5"/>
<path d="M15 24C14.015 24.0011 13.0643 23.6387 12.3299 22.9823C11.5955 22.3259 11.1291 21.4216 11.0201 20.4427C10.9111 19.4637 11.1671 18.479 11.7391 17.6771C12.3112 16.8752 13.1589 16.3126 14.12 16.097C13.8419 14.8001 14.0904 13.4458 14.8109 12.3321C15.5313 11.2185 16.6646 10.4366 17.9615 10.1585C19.2584 9.88042 20.6127 10.1289 21.7264 10.8493C22.84 11.5698 23.6219 12.7031 23.9 14H24C25.24 13.9988 26.4361 14.4583 27.3563 15.2894C28.2765 16.1205 28.8551 17.2638 28.9797 18.4975C29.1043 19.7312 28.7661 20.9671 28.0307 21.9655C27.2953 22.9638 26.2152 23.6533 25 23.9M23 21L20 18M20 18L17 21M20 18V30" stroke="#595959" strokeWidth="1.5" strokeLinecap="round" strokeLinejoin="round"/>
<path d="M4 1H36V-1H4V1ZM39 4V36H41V4H39ZM36 39H4V41H36V39ZM1 36V4H-1V36H1ZM4 39C2.34315 39 1 37.6569 1 36H-1C-1 38.7614 1.23858 41 4 41V39ZM39 36C39 37.6569 37.6569 39 36 39V41C38.7614 41 41 38.7614 41 36H39ZM36 1C37.6569 1 39 2.34315 39 4H41C41 1.23858 38.7614 -1 36 -1V1ZM4 -1C1.23858 -1 -1 1.23858 -1 4H1C1 2.34315 2.34315 1 4 1V-1Z" fill="#D9D9D9"/>
</svg>
