<svg width="40" height="40" viewBox="0 0 40 40" fill="none" xmlns="http://www.w3.org/2000/svg">
    <path d="M0 4C0 1.79086 1.79086 0 4 0H36C38.2091 0 40 1.79086 40 4V36C40 38.2091 38.2091 40 36 40H4C1.79086 40 0 38.2091 0 36V4Z" fill="#F5F5F5"/>
    <path d="M20 12.354C20.5374 11.7447 21.2477 11.3135 22.0362 11.1178C22.8247 10.9221 23.6542 10.9711 24.4142 11.2584C25.1741 11.5457 25.8286 12.0576 26.2905 12.726C26.7524 13.3943 26.9998 14.1875 26.9998 15C26.9998 15.8125 26.7524 16.6057 26.2905 17.274C25.8286 17.9424 25.1741 18.4543 24.4142 18.7416C23.6542 19.0289 22.8247 19.0779 22.0362 18.8822C21.2477 18.6865 20.5374 18.2553 20 17.646M23 29H11V28C11 26.4087 11.6321 24.8826 12.7574 23.7574C13.8826 22.6321 15.4087 22 17 22C18.5913 22 20.1174 22.6321 21.2426 23.7574C22.3679 24.8826 23 26.4087 23 28V29ZM23 29H29V28C29.0001 26.9467 28.723 25.9119 28.1965 24.9997C27.6699 24.0875 26.9125 23.3299 26.0004 22.8032C25.0882 22.2765 24.0535 21.9992 23.0002 21.9992C21.9469 21.9991 20.9122 22.2764 20 22.803M21 15C21 16.0609 20.5786 17.0783 19.8284 17.8284C19.0783 18.5786 18.0609 19 17 19C15.9391 19 14.9217 18.5786 14.1716 17.8284C13.4214 17.0783 13 16.0609 13 15C13 13.9391 13.4214 12.9217 14.1716 12.1716C14.9217 11.4214 15.9391 11 17 11C18.0609 11 19.0783 11.4214 19.8284 12.1716C20.5786 12.9217 21 13.9391 21 15Z" stroke="#595959" stroke-width="1.5" stroke-linecap="round" stroke-linejoin="round"/>
    <path d="M4 1H36V-1H4V1ZM39 4V36H41V4H39ZM36 39H4V41H36V39ZM1 36V4H-1V36H1ZM4 39C2.34315 39 1 37.6569 1 36H-1C-1 38.7614 1.23858 41 4 41V39ZM39 36C39 37.6569 37.6569 39 36 39V41C38.7614 41 41 38.7614 41 36H39ZM36 1C37.6569 1 39 2.34315 39 4H41C41 1.23858 38.7614 -1 36 -1V1ZM4 -1C1.23858 -1 -1 1.23858 -1 4H1C1 2.34315 2.34315 1 4 1V-1Z" fill="#D9D9D9"/>
</svg>
