<svg width="44" height="44" viewBox="0 0 44 44" fill="none" xmlns="http://www.w3.org/2000/svg">
    <g filter="url(#filter0_d_246:2143)">
    <path d="M2 6C2 3.79086 3.79086 2 6 2H38C40.2091 2 42 3.79086 42 6V38C42 40.2091 40.2091 42 38 42H6C3.79086 42 2 40.2091 2 38V6Z" fill="#1D39C4"/>
    <path d="M26 18V26V18ZM22 21V26V21ZM18 24V26V24ZM16 30H28C28.5304 30 29.0391 29.7893 29.4142 29.4142C29.7893 29.0391 30 28.5304 30 28V16C30 15.4696 29.7893 14.9609 29.4142 14.5858C29.0391 14.2107 28.5304 14 28 14H16C15.4696 14 14.9609 14.2107 14.5858 14.5858C14.2107 14.9609 14 15.4696 14 16V28C14 28.5304 14.2107 29.0391 14.5858 29.4142C14.9609 29.7893 15.4696 30 16 30Z" stroke="white" strokeWidth="2" strokeLinecap="round" strokeLinejoin="round"/>
    </g>
    <defs>
    <filter id="filter0_d_246:2143" x="0" y="0" width="44" height="44" filterUnits="userSpaceOnUse" colorInterpolationFilters="sRGB">
    <feFlood floodOpacity="0" result="BackgroundImageFix"/>
    <feColorMatrix in="SourceAlpha" type="matrix" values="0 0 0 0 0 0 0 0 0 0 0 0 0 0 0 0 0 0 127 0" result="hardAlpha"/>
    <feMorphology radius="2" operator="dilate" in="SourceAlpha" result="effect1_dropShadow_246:2143"/>
    <feOffset/>
    <feColorMatrix type="matrix" values="0 0 0 0 0.184314 0 0 0 0 0.329412 0 0 0 0 0.921569 0 0 0 0.15 0"/>
    <feBlend mode="normal" in2="BackgroundImageFix" result="effect1_dropShadow_246:2143"/>
    <feBlend mode="normal" in="SourceGraphic" in2="effect1_dropShadow_246:2143" result="shape"/>
    </filter>
    </defs>
</svg>
