<svg width="24" height="24" viewBox="0 0 24 24" fill="none" xmlns="http://www.w3.org/2000/svg">
<path d="M10.325 4.31703C10.751 2.56103 13.249 2.56103 13.675 4.31703C13.7389 4.58083 13.8642 4.82581 14.0407 5.03203C14.2172 5.23825 14.4399 5.39988 14.6907 5.50377C14.9414 5.60767 15.2132 5.65088 15.4838 5.6299C15.7544 5.60892 16.0162 5.52433 16.248 5.38303C17.791 4.44303 19.558 6.20903 18.618 7.75303C18.4769 7.98468 18.3924 8.24637 18.3715 8.5168C18.3506 8.78724 18.3938 9.0588 18.4975 9.30941C18.6013 9.56002 18.7627 9.78261 18.9687 9.95908C19.1747 10.1356 19.4194 10.2609 19.683 10.325C21.439 10.751 21.439 13.249 19.683 13.675C19.4192 13.7389 19.1742 13.8642 18.968 14.0407C18.7618 14.2172 18.6001 14.4399 18.4963 14.6907C18.3924 14.9414 18.3491 15.2132 18.3701 15.4838C18.3911 15.7544 18.4757 16.0163 18.617 16.248C19.557 17.791 17.791 19.558 16.247 18.618C16.0153 18.4769 15.7537 18.3925 15.4832 18.3715C15.2128 18.3506 14.9412 18.3938 14.6906 18.4976C14.44 18.6013 14.2174 18.7628 14.0409 18.9688C13.8645 19.1747 13.7391 19.4195 13.675 19.683C13.249 21.439 10.751 21.439 10.325 19.683C10.2611 19.4192 10.1358 19.1742 9.95929 18.968C9.7828 18.7618 9.56011 18.6002 9.30935 18.4963C9.05859 18.3924 8.78683 18.3492 8.51621 18.3702C8.24559 18.3911 7.98375 18.4757 7.752 18.617C6.209 19.557 4.442 17.791 5.382 16.247C5.5231 16.0154 5.60755 15.7537 5.62848 15.4833C5.64942 15.2128 5.60624 14.9413 5.50247 14.6906C5.3987 14.44 5.23726 14.2175 5.03127 14.041C4.82529 13.8645 4.58056 13.7391 4.317 13.675C2.561 13.249 2.561 10.751 4.317 10.325C4.5808 10.2611 4.82578 10.1358 5.032 9.95932C5.23822 9.78283 5.39985 9.56014 5.50375 9.30938C5.60764 9.05861 5.65085 8.78686 5.62987 8.51624C5.60889 8.24562 5.5243 7.98378 5.383 7.75203C4.443 6.20903 6.209 4.44203 7.753 5.38203C8.749 5.99003 10.049 5.45203 10.325 4.31703Z" stroke="#262626" stroke-width="1.5" stroke-linecap="round" stroke-linejoin="round"/>
<path d="M15 12C15 12.7957 14.6839 13.5587 14.1213 14.1213C13.5587 14.684 12.7956 15 12 15C11.2044 15 10.4413 14.684 9.87868 14.1213C9.31607 13.5587 9 12.7957 9 12C9 11.2044 9.31607 10.4413 9.87868 9.87871C10.4413 9.3161 11.2044 9.00003 12 9.00003C12.7956 9.00003 13.5587 9.3161 14.1213 9.87871C14.6839 10.4413 15 11.2044 15 12V12Z" stroke="#262626" stroke-width="1.5" stroke-linecap="round" stroke-linejoin="round"/>
</svg>
