<svg width="40" height="40" viewBox="0 0 40 40" fill="none" xmlns="http://www.w3.org/2000/svg">
    <path d="M0 4C0 1.79086 1.79086 0 4 0H36C38.2091 0 40 1.79086 40 4V36C40 38.2091 38.2091 40 36 40H4C1.79086 40 0 38.2091 0 36V4Z" fill="#F5F5F5"/>
    <path d="M25.657 24.657L21.414 28.9C21.2284 29.0858 21.0081 29.2331 20.7656 29.3336C20.523 29.4342 20.2631 29.4859 20.0005 29.4859C19.738 29.4859 19.478 29.4342 19.2354 29.3336C18.9929 29.2331 18.7726 29.0858 18.587 28.9L14.343 24.657C13.2242 23.5382 12.4623 22.1127 12.1537 20.5609C11.845 19.009 12.0035 17.4005 12.609 15.9387C13.2145 14.477 14.2399 13.2276 15.5555 12.3485C16.8711 11.4695 18.4178 11.0003 20 11.0003C21.5822 11.0003 23.1289 11.4695 24.4445 12.3485C25.7601 13.2276 26.7855 14.477 27.391 15.9387C27.9965 17.4005 28.155 19.009 27.8463 20.5609C27.5377 22.1127 26.7758 23.5382 25.657 24.657V24.657Z" stroke="#595959" stroke-width="1.5" stroke-linecap="round" stroke-linejoin="round"/>
    <path d="M23 19C23 19.7956 22.6839 20.5587 22.1213 21.1213C21.5587 21.6839 20.7956 22 20 22C19.2044 22 18.4413 21.6839 17.8787 21.1213C17.3161 20.5587 17 19.7956 17 19C17 18.2044 17.3161 17.4413 17.8787 16.8787C18.4413 16.3161 19.2044 16 20 16C20.7956 16 21.5587 16.3161 22.1213 16.8787C22.6839 17.4413 23 18.2044 23 19V19Z" stroke="#595959" stroke-width="1.5" stroke-linecap="round" stroke-linejoin="round"/>
    <path d="M4 1H36V-1H4V1ZM39 4V36H41V4H39ZM36 39H4V41H36V39ZM1 36V4H-1V36H1ZM4 39C2.34315 39 1 37.6569 1 36H-1C-1 38.7614 1.23858 41 4 41V39ZM39 36C39 37.6569 37.6569 39 36 39V41C38.7614 41 41 38.7614 41 36H39ZM36 1C37.6569 1 39 2.34315 39 4H41C41 1.23858 38.7614 -1 36 -1V1ZM4 -1C1.23858 -1 -1 1.23858 -1 4H1C1 2.34315 2.34315 1 4 1V-1Z" fill="#D9D9D9"/>
</svg>
