<svg width="32" height="32" viewBox="0 0 32 32" fill="none" xmlns="http://www.w3.org/2000/svg">
<path d="M0 0H28C30.2091 0 32 1.79086 32 4V28C32 30.2091 30.2091 32 28 32H0V0Z" fill="white"/>
<path d="M22.2125 21.3516L18.1547 17.2937C18.7844 16.4797 19.125 15.4844 19.125 14.4375C19.125 13.1844 18.6359 12.0094 17.7516 11.1234C16.8672 10.2375 15.6891 9.75 14.4375 9.75C13.1859 9.75 12.0078 10.2391 11.1234 11.1234C10.2375 12.0078 9.75 13.1844 9.75 14.4375C9.75 15.6891 10.2391 16.8672 11.1234 17.7516C12.0078 18.6375 13.1844 19.125 14.4375 19.125C15.4844 19.125 16.4781 18.7844 17.2922 18.1562L21.35 22.2125C21.3619 22.2244 21.376 22.2338 21.3916 22.2403C21.4071 22.2467 21.4238 22.2501 21.4406 22.2501C21.4575 22.2501 21.4741 22.2467 21.4897 22.2403C21.5052 22.2338 21.5194 22.2244 21.5312 22.2125L22.2125 21.5328C22.2244 21.5209 22.2338 21.5068 22.2403 21.4912C22.2467 21.4757 22.2501 21.459 22.2501 21.4422C22.2501 21.4254 22.2467 21.4087 22.2403 21.3931C22.2338 21.3776 22.2244 21.3635 22.2125 21.3516ZM16.9125 16.9125C16.25 17.5734 15.3719 17.9375 14.4375 17.9375C13.5031 17.9375 12.625 17.5734 11.9625 16.9125C11.3016 16.25 10.9375 15.3719 10.9375 14.4375C10.9375 13.5031 11.3016 12.6234 11.9625 11.9625C12.625 11.3016 13.5031 10.9375 14.4375 10.9375C15.3719 10.9375 16.2516 11.3 16.9125 11.9625C17.5734 12.625 17.9375 13.5031 17.9375 14.4375C17.9375 15.3719 17.5734 16.2516 16.9125 16.9125Z" fill="#595959"/>
<path d="M0 0V-1H-1V0H0ZM0 32H-1V33H0V32ZM0 1H28V-1H0V1ZM31 4V28H33V4H31ZM28 31H0V33H28V31ZM1 32V0H-1V32H1ZM31 28C31 29.6569 29.6569 31 28 31V33C30.7614 33 33 30.7614 33 28H31ZM28 1C29.6569 1 31 2.34315 31 4H33C33 1.23858 30.7614 -1 28 -1V1Z" fill="#D9D9D9"/>
</svg>
