<svg width="24" height="24" viewBox="0 0 24 24" fill="none" xmlns="http://www.w3.org/2000/svg">
<path d="M19.3168 16.4039C18.7301 15.8168 18.0446 15.3376 17.2918 14.9883C18.3535 14.1281 19.0308 12.8156 19.0308 11.3437C19.0308 8.74685 16.8652 6.61638 14.2683 6.65622C11.7113 6.69606 9.65113 8.77966 9.65113 11.3437C9.65113 12.8156 10.3308 14.1281 11.3902 14.9883C10.6372 15.3373 9.95165 15.8165 9.3652 16.4039C8.08551 17.6859 7.35895 19.3781 7.31207 21.1828C7.31145 21.2078 7.31583 21.2327 7.32498 21.256C7.33412 21.2793 7.34783 21.3005 7.3653 21.3184C7.38278 21.3363 7.40366 21.3505 7.42672 21.3603C7.44978 21.37 7.47455 21.375 7.49957 21.375H8.81207C8.91285 21.375 8.99723 21.2953 8.99957 21.1945C9.0441 19.8351 9.59488 18.5625 10.5629 17.5968C11.0582 17.0989 11.6474 16.7041 12.2963 16.4354C12.9452 16.1666 13.641 16.0293 14.3433 16.0312C15.7707 16.0312 17.1136 16.5867 18.1238 17.5968C19.0894 18.5625 19.6402 19.8351 19.6871 21.1945C19.6894 21.2953 19.7738 21.375 19.8746 21.375H21.1871C21.2121 21.375 21.2369 21.37 21.2599 21.3603C21.283 21.3505 21.3039 21.3363 21.3213 21.3184C21.3388 21.3005 21.3525 21.2793 21.3617 21.256C21.3708 21.2327 21.3752 21.2078 21.3746 21.1828C21.3277 19.3781 20.6011 17.6859 19.3168 16.4039ZM14.3433 14.3437C13.5418 14.3437 12.7871 14.032 12.2222 13.4648C11.9388 13.1836 11.7148 12.8481 11.5638 12.4785C11.4128 12.1088 11.3378 11.7125 11.3433 11.3133C11.3504 10.5445 11.6574 9.80153 12.1941 9.25075C12.7566 8.67419 13.5089 8.3531 14.3129 8.34372C15.1074 8.33669 15.8785 8.64606 16.4457 9.20153C17.0269 9.77106 17.3457 10.5328 17.3457 11.3437C17.3457 12.1453 17.0339 12.8976 16.4668 13.4648C16.1885 13.7444 15.8575 13.9661 15.4931 14.1169C15.1286 14.2678 14.7378 14.3449 14.3433 14.3437ZM8.47223 11.9625C8.45113 11.7586 8.43941 11.5523 8.43941 11.3437C8.43941 10.9711 8.47457 10.6078 8.5402 10.2539C8.5566 10.1695 8.51207 10.0828 8.43473 10.0476C8.11598 9.90466 7.82301 9.70778 7.56988 9.45935C7.27162 9.17014 7.03691 8.82194 6.88074 8.43696C6.72457 8.05198 6.65036 7.63867 6.66285 7.22341C6.68395 6.47106 6.98629 5.75622 7.51363 5.21716C8.09254 4.62419 8.87066 4.30075 9.69801 4.31013C10.4457 4.31716 11.1675 4.60544 11.7136 5.11638C11.8988 5.28981 12.0582 5.482 12.1918 5.68825C12.2386 5.76091 12.33 5.79138 12.4097 5.76325C12.8222 5.62028 13.2582 5.5195 13.7058 5.47263C13.8371 5.45856 13.9121 5.31794 13.8535 5.20075C13.0918 3.69372 11.5355 2.6531 9.73551 2.62497C7.13629 2.58513 4.97066 4.7156 4.97066 7.31013C4.97066 8.782 5.64801 10.0945 6.70973 10.9547C5.96441 11.2992 5.2777 11.775 4.68238 12.3703C3.39801 13.6523 2.67145 15.3445 2.62457 17.1515C2.62394 17.1765 2.62833 17.2014 2.63747 17.2247C2.64662 17.248 2.66033 17.2692 2.6778 17.2872C2.69528 17.3051 2.71616 17.3193 2.73922 17.329C2.76228 17.3387 2.78705 17.3437 2.81207 17.3437H4.12691C4.2277 17.3437 4.31207 17.264 4.31441 17.1632C4.35895 15.8039 4.90973 14.5312 5.8777 13.5656C6.56676 12.8765 7.41051 12.3984 8.3316 12.1664C8.42301 12.1429 8.48395 12.0562 8.47223 11.9625Z" fill="#262626"/>
</svg>
